<svg id="visual" viewBox="0 0 900 600" width="900" height="600" xmlns="http://www.w3.org/2000/svg" xmlns:xlink="http://www.w3.org/1999/xlink" version="1.1"><rect width="900" height="600" fill="#3a4751"></rect><g><g transform="translate(11 387)"><path d="M0 -117.8L75.8 -90.3L116.1 -20.5L102.1 58.9L40.3 110.7L-40.3 110.7L-102.1 58.9L-116.1 -20.5L-75.8 -90.3Z" fill="none" stroke="#fdfdfd" stroke-width="2"></path></g><g transform="translate(321 108)"><path d="M0 -109L70.1 -83.5L107.3 -18.9L94.4 54.5L37.3 102.4L-37.3 102.4L-94.4 54.5L-107.3 -18.9L-70.1 -83.5Z" fill="none" stroke="#fdfdfd" stroke-width="2"></path></g><g transform="translate(68 41)"><path d="M0 -89L57.2 -68.2L87.6 -15.5L77.1 44.5L30.4 83.6L-30.4 83.6L-77.1 44.5L-87.6 -15.5L-57.2 -68.2Z" stroke="#fdfdfd" fill="none" stroke-width="2"></path></g><g transform="translate(810 459)"><path d="M0 -104L66.8 -79.7L102.4 -18.1L90.1 52L35.6 97.7L-35.6 97.7L-90.1 52L-102.4 -18.1L-66.8 -79.7Z" stroke="#fdfdfd" fill="none" stroke-width="2"></path></g><g transform="translate(168 587)"><path d="M0 -96L61.7 -73.5L94.5 -16.7L83.1 48L32.8 90.2L-32.8 90.2L-83.1 48L-94.5 -16.7L-61.7 -73.5Z" stroke="#fdfdfd" fill="none" stroke-width="2"></path></g><g transform="translate(584 198)"><path d="M0 -92L59.1 -70.5L90.6 -16L79.7 46L31.5 86.5L-31.5 86.5L-79.7 46L-90.6 -16L-59.1 -70.5Z" stroke="#fdfdfd" fill="none" stroke-width="2"></path></g><g transform="translate(852 11)"><path d="M0 -105L67.5 -80.4L103.4 -18.2L90.9 52.5L35.9 98.7L-35.9 98.7L-90.9 52.5L-103.4 -18.2L-67.5 -80.4Z" stroke="#fdfdfd" fill="none" stroke-width="2"></path></g><g transform="translate(475 549)"><path d="M0 -77L49.5 -59L75.8 -13.4L66.7 38.5L26.3 72.4L-26.3 72.4L-66.7 38.5L-75.8 -13.4L-49.5 -59Z" stroke="#fdfdfd" fill="none" stroke-width="2"></path></g><g transform="translate(285 370)"><path d="M0 -94L60.4 -72L92.6 -16.3L81.4 47L32.1 88.3L-32.1 88.3L-81.4 47L-92.6 -16.3L-60.4 -72Z" stroke="#fdfdfd" fill="none" stroke-width="2"></path></g></g></svg>